<svg width="36" height="36" viewBox="0 0 36 36" fill="none" xmlns="http://www.w3.org/2000/svg">
<circle cx="18" cy="18" r="18" fill="#04327A"/>
<path d="M10 17.9999C10 22.411 13.5958 26 18.0155 26C22.4353 26 26.031 22.411 26.031 17.9999C26.031 13.5887 22.4353 10 18.0155 10C13.5958 10 10 13.5887 10 17.9999V17.9999ZM24.5738 17.9999C24.5738 21.6091 21.6318 24.5454 18.0155 24.5454C14.3992 24.5454 11.4572 21.6091 11.4572 17.9999C11.4572 14.3909 14.3992 11.4546 18.0155 11.4546C21.6318 11.4546 24.5738 14.3909 24.5738 17.9999Z" fill="white"/>
<path d="M17.141 13.6364V14.4886C16.2928 14.7887 15.6835 15.5972 15.6835 16.5454C15.6835 17.7483 16.6641 18.7272 17.8696 18.7272C18.2714 18.7272 18.5982 19.0535 18.5982 19.4544C18.5982 19.8554 18.2714 20.1816 17.8696 20.1816C17.5584 20.1816 17.2222 19.9864 16.9235 19.6315C16.6644 19.324 16.2049 19.2845 15.8968 19.5428C15.5887 19.8014 15.5489 20.26 15.808 20.5675C16.1975 21.0298 16.6556 21.3521 17.141 21.5146V22.3634C17.141 22.7653 17.4673 23.0906 17.8696 23.0906C18.272 23.0906 18.5982 22.7653 18.5982 22.3634V21.5112C19.4464 21.2109 20.0557 20.4024 20.0557 19.4544C20.0557 18.2513 19.0752 17.2726 17.8696 17.2726C17.4679 17.2726 17.141 16.9464 17.141 16.5454C17.141 16.1445 17.4679 15.8179 17.8696 15.8179C18.1279 15.8179 18.4004 15.9495 18.6578 16.1982C18.947 16.4775 19.4083 16.4698 19.6882 16.1814C19.968 15.8927 19.9604 15.4323 19.6714 15.153C19.3015 14.7958 18.9314 14.5938 18.5982 14.4835V13.6364C18.5982 13.2346 18.272 12.9089 17.8696 12.9089C17.4673 12.9089 17.141 13.2346 17.141 13.6364V13.6364Z" fill="white"/>
</svg>
