<?xml version="1.0" encoding="utf-8"?>
<!-- Generator: Adobe Illustrator 27.8.1, SVG Export Plug-In . SVG Version: 6.00 Build 0)  -->
<svg version="1.1" id="圖層_1" xmlns="http://www.w3.org/2000/svg" xmlns:xlink="http://www.w3.org/1999/xlink" x="0px" y="0px"
	 viewBox="0 0 530 350" style="enable-background:new 0 0 530 350;" xml:space="preserve">
<style type="text/css">
	.st0{fill:#437D7E;}
	.st1{fill:#FFFFFF;}
</style>
<rect class="st0" width="530" height="350"/>
<g>
	<g>
		<path class="st1" d="M158.1,242.3l-6,21.2h-2.7l-4.4-15.6c-0.2-0.7-0.3-1.4-0.3-2.1h-0.1c-0.1,0.7-0.2,1.4-0.4,2.1l-4.4,15.6H137
			l-6.2-21.2h2.6l4.6,16.4c0.2,0.7,0.3,1.4,0.4,2.1h0.1c0-0.5,0.2-1.2,0.5-2.1l4.7-16.4h2.2l4.6,16.5c0.1,0.5,0.3,1.2,0.4,2h0.1
			c0-0.6,0.2-1.2,0.4-2l4.4-16.4L158.1,242.3L158.1,242.3z"/>
		<path class="st1" d="M160.6,242.9c0-0.4,0.1-0.8,0.4-1.1s0.6-0.4,1-0.4c0.4,0,0.8,0.1,1.1,0.5c0.3,0.3,0.4,0.7,0.4,1.1
			c0,0.4-0.1,0.8-0.4,1.1s-0.7,0.5-1.1,0.5c-0.4,0-0.8-0.1-1.1-0.4C160.8,243.7,160.6,243.3,160.6,242.9z M161,263.5v-15.1h2.3v15.1
			H161z"/>
		<path class="st1" d="M180.6,263.5h-2.3v-8.6c0-3.3-1.2-4.9-3.6-4.9c-1.2,0-2.3,0.5-3.1,1.4c-0.8,0.9-1.2,2.1-1.2,3.5v8.6h-2.3
			v-15.1h2.3v2.5h0.1c1.1-1.9,2.8-2.9,5-2.9c1.7,0,2.9,0.5,3.8,1.6s1.3,2.6,1.3,4.6L180.6,263.5L180.6,263.5z"/>
		<path class="st1" d="M198,263.5h-2.3v-2.6h-0.1c-1.1,2-2.9,3-5.2,3c-1.9,0-3.4-0.7-4.6-2c-1.1-1.4-1.7-3.2-1.7-5.5
			c0-2.5,0.6-4.5,1.9-6c1.3-1.5,2.9-2.3,5-2.3s3.6,0.8,4.6,2.5h0.1v-9.4h2.3L198,263.5L198,263.5z M195.8,254.4
			c0-1.2-0.4-2.3-1.3-3.1c-0.8-0.9-1.9-1.3-3.1-1.3c-1.5,0-2.7,0.6-3.6,1.7s-1.3,2.6-1.3,4.5c0,1.7,0.4,3.1,1.2,4.2s1.9,1.6,3.3,1.6
			c1.3,0,2.4-0.5,3.3-1.5c0.9-1,1.3-2.2,1.3-3.8L195.8,254.4L195.8,254.4z"/>
		<path class="st1" d="M202,256.1c0-2.5,0.7-4.5,2.1-5.9s3.2-2.2,5.6-2.2c2.2,0,4,0.7,5.2,2.1c1.3,1.4,1.9,3.3,1.9,5.8
			c0,2.4-0.7,4.3-2.1,5.8s-3.2,2.2-5.4,2.2c-2.2,0-3.9-0.7-5.3-2.1C202.6,260.3,202,258.4,202,256.1z M204.3,256
			c0,1.8,0.5,3.2,1.4,4.3c0.9,1.1,2.2,1.6,3.7,1.6c1.6,0,2.8-0.5,3.7-1.6c0.9-1,1.3-2.5,1.3-4.4c0-1.9-0.4-3.4-1.3-4.4
			s-2.1-1.6-3.7-1.6c-1.6,0-2.8,0.5-3.7,1.6S204.3,254.1,204.3,256z"/>
		<path class="st1" d="M239.5,248.3l-4.5,15.1h-2.4l-3.2-11c-0.1-0.4-0.2-0.9-0.2-1.4h-0.1c0,0.3-0.1,0.7-0.3,1.3l-3.4,11h-2.3
			l-4.6-15.1h2.4l3.2,11.5c0.1,0.4,0.2,0.8,0.2,1.3h0.1c0-0.4,0.1-0.9,0.3-1.4l3.5-11.4h2.1l3.2,11.5c0.1,0.3,0.2,0.8,0.2,1.3h0.1
			c0-0.4,0.1-0.8,0.2-1.3l3.1-11.5L239.5,248.3L239.5,248.3z"/>
		<path class="st1" d="M241.4,260.4c1.3,1,2.8,1.5,4.3,1.5c2.2,0,3.2-0.7,3.2-2.2c0-0.6-0.2-1.2-0.7-1.6c-0.5-0.4-1.4-0.9-2.8-1.4
			c-1.6-0.6-2.7-1.3-3.3-2c-0.5-0.7-0.8-1.5-0.8-2.4c0-1.3,0.6-2.3,1.7-3.1s2.5-1.2,4.1-1.2c1.3,0,2.5,0.2,3.5,0.7v2.4
			c-1.1-0.7-2.4-1.1-3.8-1.1c-0.9,0-1.6,0.2-2.2,0.6s-0.8,0.9-0.8,1.6s0.2,1.2,0.6,1.5c0.4,0.3,1.3,0.8,2.6,1.4
			c1.7,0.7,2.9,1.3,3.5,2s0.9,1.5,0.9,2.5c0,1.3-0.6,2.4-1.7,3.2s-2.5,1.2-4.3,1.2c-1.6,0-2.9-0.3-4-0.9L241.4,260.4L241.4,260.4z"
			/>
		<path class="st1" d="M270.6,259.8c-3,2.1-5.8,3.6-8.4,4.5l-0.8-1.3c2.6-0.8,5.3-2.2,8-4.1L270.6,259.8z M286,257.5h-11.6v7.4H273
			v-7.4h-11.5v-1.3H273v-2.1h-8.3v-8.5h7.6v-5.2h1.4v1.8h9.9v1.4h-9.9v2.1h8.9v8.5h-8.2v2.1H286L286,257.5L286,257.5z M281.3,249.1
			V247h-15.1v2.1H281.3z M281.3,252.7v-2.2h-15.1v2.2H281.3z M286.1,263.2l-1,1.2c-2.4-1.6-5.2-3.1-8.4-4.3l1-1.3
			C280.7,260.1,283.5,261.6,286.1,263.2z"/>
		<path class="st1" d="M297.1,252.1L296,253c-0.5-1-1.1-1.9-1.7-2.8v14.7h-1.4V251c-1,2.9-1.9,5.1-2.7,6.5l-0.8-1.5
			c1.4-2.5,2.6-5.5,3.5-9.1h-3.3v-1.4h3.3v-5.1h1.4v5.1h2.1v1.4h-2.1v1.5C295.3,249.5,296.2,250.8,297.1,252.1z M314.1,260.5
			c-0.2,1.6-0.5,2.7-0.9,3.5c-0.4,0.8-0.9,1.2-1.6,1.2c-1.2,0-2.6-1.3-4-3.8c-1.5,1.3-3.3,2.4-5.4,3.4l-1-1.1
			c2.2-0.8,4.1-1.9,5.8-3.4c-0.8-1.7-1.4-3.4-1.7-5h-5.1l-0.2,1.7c1.5,0.8,2.9,1.7,4,2.7l-0.8,1.2c-0.7-0.8-1.8-1.6-3.3-2.5
			c-0.6,2.7-1.7,5-3.5,6.8l-1.3-0.9c2.3-2,3.5-5,3.7-9h-2.5v-1.4h8.8c-0.5-4.5-0.8-9-0.9-13.5l1.4,0.1c0.1,6.1,0.4,10.5,0.9,13.4
			h2.8c-0.1-0.2-0.3-0.6-0.7-1.3l1.1-0.5c0.4,0.5,0.7,1.1,1,1.8h3v1.4h-7c0.2,1.2,0.6,2.5,1.3,4c0.9-0.9,1.7-2,2.4-3.3l1.1,0.7
			c-0.9,1.5-1.9,2.8-3,3.9c0.4,0.8,0.9,1.5,1.5,2.3s1.1,1.1,1.4,1.1c0.3,0,0.5-0.2,0.7-0.7s0.4-1.6,0.6-3.2L314.1,260.5z
			 M304.2,252.2l-1.3,0.4c0-0.3-0.1-0.8-0.2-1.3c-2,0.2-3.7,0.4-5.1,0.6l-0.2-1c1.2-1.4,2.2-2.7,3-3.9l-2.9,0.4l-0.4-1.2
			c1.3-2.1,2.2-4,2.9-5.7l1.3,0.6c-0.6,1.3-1.4,2.9-2.5,4.8c0.9-0.1,1.8-0.2,2.7-0.4c0.4-0.6,0.8-1.3,1.3-2.3l1.2,0.7
			c-1.4,2.3-2.9,4.4-4.6,6.5c0.9,0,2-0.1,3.1-0.3c-0.1-0.7-0.3-1.3-0.6-1.9l1.2-0.3C303.5,248.9,303.9,250.4,304.2,252.2z
			 M313.9,252.1l-1.3,0.4c0-0.3-0.1-0.7-0.3-1.3c-1.5,0.2-3.2,0.4-5,0.7l-0.4-1.2c1.2-1.4,2.1-2.6,2.9-3.7c-0.8,0.1-1.7,0.2-2.8,0.4
			l-0.4-1.2c1.2-1.9,2.1-3.7,2.8-5.5l1.3,0.6c-0.8,1.6-1.6,3.2-2.4,4.6c0.6-0.1,1.5-0.2,2.7-0.4c0.3-0.5,0.8-1.2,1.2-2l1.2,0.6
			c-1,1.7-2.5,3.8-4.4,6.3l3.1-0.4c-0.2-0.6-0.3-1.1-0.5-1.5l1.2-0.4C313.1,249.3,313.5,250.6,313.9,252.1z"/>
		<path class="st1" d="M326.8,248.7h-5.2v1.9c0,1,0,1.9-0.1,2.6h4.9v11.6H325v-10.2h-3.5c-0.3,4-1.3,7.4-3,10.4l-1.3-1
			c2-3.2,3-7.7,3-13.7v-9.7h1.4v6.6h3.8v-6.8h1.4L326.8,248.7L326.8,248.7z M342.1,263.9l-1.1,1.1c-1.7-1.4-3.2-2.8-4.4-4.3
			c-1.7,1.8-3.5,3.2-5.5,4.3l-1-1.2c2.2-1.2,4-2.6,5.5-4.3c-1.6-2.4-2.7-5.6-3.4-9.5h-0.9c0,5.9-1,10.9-3,14.9l-1.2-1.1
			c1.9-3.7,2.8-8.3,2.8-13.7v-8.8h11.3v1.4h-9.9v5.9h9.1c-0.3,4.8-1.3,8.5-3.1,11C338.7,261.2,340.3,262.6,342.1,263.9z M339,249.9
			h-5.3c0.7,3.5,1.7,6.3,2.9,8.3C337.9,256.1,338.7,253.4,339,249.9z"/>
		<path class="st1" d="M357.8,244.1h-5.3v2.4h4.2v10.7h-4.2v2.4h5v1.4h-5v3.9h-1.4V261h-5.5v-1.4h5.5v-2.4h-4.3v-10.7h4.3v-2.4h-5.2
			v-1.4h5.2v-2.3h1.4v2.3h5.3V244.1z M351.1,251v-3.1h-2.9v3.1H351.1z M351.1,255.8v-3.4h-2.9v3.4H351.1z M355.3,251v-3.1h-2.8v3.1
			H355.3z M355.3,255.8v-3.4h-2.8v3.4H355.3z M369.9,263.9l-1,1.1c-3.2-2.6-5.2-5.6-5.9-9.1c-0.8,3.4-2.8,6.4-6.1,9.1l-1.1-1.1
			c2.4-2,4-4,5-6.2s1.5-5.2,1.5-8.9h1.5c-0.1,1.2-0.1,2.1-0.1,2.7c0,2.3,0.5,4.5,1.6,6.7S367.9,262.3,369.9,263.9z M369.3,245.1
			c-0.4,3.4-1.2,6-2.2,7.8l-1.1-0.9c0.8-1.6,1.4-3.4,1.7-5.5h-6.3c-0.8,2-1.7,3.6-2.6,4.8l-1.1-1c1.8-2.2,3-5.6,3.8-10l1.4,0.4
			c-0.2,1.3-0.5,2.8-1,4.4L369.3,245.1L369.3,245.1z"/>
		<path class="st1" d="M382.1,262.9c0,0.6-0.2,1-0.5,1.4c-0.3,0.4-0.9,0.6-1.6,0.6H379l-0.4-1.3h1.8c0.1,0,0.2-0.1,0.3-0.1
			c0.1-0.1,0.2-0.2,0.2-0.3v-3.9c-1.6,0.9-2.9,1.5-3.8,1.8l-0.4-0.7c-0.5,1.9-1.1,3.4-1.8,4.4l-1.1-0.6c1.3-2.2,2-4.6,2-7.1v-5.6
			h6.4L382.1,262.9L382.1,262.9z M384,251.1h-1.3v-1.6h-7.5v1.6h-1.4v-2.9h1.4v-7.1h7.8v7.1h1L384,251.1L384,251.1z M381.7,244.5
			v-2.1h-5.1v5.8h1.7v-3.7L381.7,244.5L381.7,244.5z M380.8,257.7v-4.8H377v1.6c1,0.3,2.1,0.7,3.4,1.3l-0.6,1.2
			c-0.6-0.3-1.5-0.7-2.7-1.1c0,1.7-0.1,3-0.2,4C378,259.3,379.4,258.6,380.8,257.7z M381.6,248.2v-2.5h-2v2.5H381.6z M397.8,264.3
			h-14V263h4.3c-0.2-0.8-0.5-1.8-1-2.9h-1.4v-4.6h10.6v4.6h-1.7c-0.5,1.2-0.9,2.2-1.2,2.9h4.4V264.3z M397.7,253.8h-13.3v-1.3h13.3
			V253.8z M397,250.7h-11.8v-8h3.5v-2.3h1.2v2.3h2.3v-2.3h1.2v2.3h3.5L397,250.7L397,250.7z M388.8,246.1V244h-2.3v2.1H388.8z
			 M388.8,249.5v-2.2h-2.3v2.2H388.8z M394.9,258.8v-2.1h-7.8v2.1H394.9z M393.1,260.1h-4.6l1,2.9h2.4
			C392.4,261.9,392.8,261,393.1,260.1z M392.3,246.1V244H390v2.1H392.3z M392.3,249.5v-2.2H390v2.2H392.3z M395.8,246.1V244h-2.2
			v2.1H395.8z M395.8,249.5v-2.2h-2.2v2.2H395.8z"/>
		<path class="st1" d="M205.3,284.6h-8.5v-1.4h4.2c-0.2-0.6-0.7-1.5-1.3-2.5l1.3-0.6c0.6,1.2,1.1,2.2,1.5,3h2.8V284.6z M205,288.6
			h-7.5v-1.4h7.5V288.6z M205,292.8h-7.5v-1.5h7.5V292.8z M204.5,304.2h-1.4v-1.5h-3.9v2.2h-1.4v-9.2h6.7V304.2z M203.1,301.2V297
			h-3.9v4.3H203.1z M221.1,290.5h-15.2v-1.3h7v-2.1h-5.8v-1.3h5.8v-1.9h-6.4v-1.3h6.4v-2.2h1.4v2.2h6.2v1.3h-6.2v1.9h5.6v1.3h-5.6
			v2.1h6.8L221.1,290.5L221.1,290.5z M219.4,302.7c0,0.7-0.2,1.3-0.6,1.7c-0.4,0.4-1.9,0.6-4.3,0.5l-0.5-1.4h3.1
			c0.2,0,0.4-0.1,0.6-0.2c0.2-0.2,0.3-0.3,0.3-0.5v-2.3h-9c-0.4,1.9-1.1,3.4-2,4.6l-1.1-1c1.3-1.7,1.9-4.2,1.9-7.4v-4.4h11.6V302.7z
			 M217.9,299v-2.1h-8.8c0,0.7,0,1.4-0.1,2.1H217.9z M217.9,295.6v-2h-8.8v2H217.9z"/>
		<path class="st1" d="M248,304.9h-1.5v-2h-18.8v2h-1.5v-20.1h10.2v-4.3h1.5v4.3H248V304.9z M236.4,293v-6.7h-8.7v6.7H236.4z
			 M236.4,301.4v-6.9h-8.7v6.9H236.4z M246.5,293v-6.7h-8.6v6.7H246.5z M246.5,301.4v-6.9h-8.6v6.9H246.5z"/>
		<path class="st1" d="M266.4,289.8h-4.3V301c2.1-0.6,3.5-1,4.1-1.3l0.1,1.5c-4.1,1.3-8.5,2.5-13.2,3.5l-0.3-1.4
			c0.6-0.1,1.5-0.3,2.7-0.6v-18.6h1.4v18.2c1.2-0.3,2.5-0.6,3.6-0.9v-21h1.5v7.9h4.3L266.4,289.8L266.4,289.8z M277.2,297.1
			c-0.1,2.1-0.2,3.7-0.5,4.9s-0.7,1.9-1.3,2.2c-0.6,0.3-1.6,0.4-3.2,0.4c-1.2,0-2.1,0-2.6-0.1c-0.5-0.1-0.9-0.3-1.2-0.7
			c-0.3-0.4-0.5-1-0.5-1.6v-21.8h1.5v7.9h7v1.4h-7v12.6c0,0.3,0.1,0.6,0.4,0.7s1.4,0.1,3.2,0.1c0.8,0,1.3,0,1.5-0.1s0.4-0.3,0.5-0.5
			s0.3-0.9,0.4-2.1c0.2-1.2,0.2-2.4,0.3-3.6L277.2,297.1z"/>
		<path class="st1" d="M305.2,282.5h-12.7v6c4.9,2.6,8.2,4.6,9.9,6.1l-0.9,1.4c-2.4-2-5.4-3.9-9-5.8v14.6H291v-22.3H281V281h24.3
			L305.2,282.5L305.2,282.5z"/>
		<path class="st1" d="M333.3,286.8H327c0,4.2,0.3,7.8,0.9,10.9c1.3-2.5,2.2-5.4,2.8-8.7l1.3,0.5c-0.9,4.3-2.1,7.7-3.6,10.1
			c0.3,1.2,0.7,2.1,1.1,2.8s0.8,1,1,1c0.3,0,0.6-0.4,0.9-1.3s0.4-1.9,0.5-3.3l1.3,0.8c-0.4,3.6-1.3,5.4-2.6,5.4
			c-1.2,0-2.3-1.3-3.2-3.8c-0.9,1.1-2.1,2.3-3.4,3.5l-1.1-0.9c1.9-1.6,3.2-3.1,4-4.3c-0.8-3.5-1.2-7.7-1.2-12.6H309v-1.3h7.1v-2.1
			H310v-1.3h6.1v-1.8h1.4v1.8h6.5v1.3h-6.5v2.1h8.1c0-1.6,0-3.3,0-5.1h1.4c-0.1,2.2-0.1,3.9-0.1,5.1h6.3L333.3,286.8L333.3,286.8z
			 M324,290.4h-6.5v1.7h5.7v7.4h-5.7v1.6h5.6v1.3h-5.6v2.4h-1.4v-2.4h-7v-1.3h7v-1.6h-5.8v-7.4h5.8v-1.7h-6.7v-1.3h6.7v-1.4h1.4v1.4
			h6.5V290.4z M316.1,295.2v-1.9h-4.4v1.9H316.1z M316.1,298.3v-1.8h-4.4v1.8H316.1z M321.7,295.2v-1.9h-4.3v1.9H321.7z
			 M321.7,298.3v-1.8h-4.3v1.8H321.7z M332.1,284l-1.2,0.8c-0.6-1.2-1.3-2.3-2.2-3.4l1.2-0.7C330.7,281.7,331.5,282.8,332.1,284z"/>
	</g>
</g>
<g>
	<path class="st1" d="M175.9,77.3c22-3.4,44.1-6.5,66.2-9.6c0,19.3,0,38.7,0,58c-22.1,0.1-44.1,0.4-66.2,0.5
		C175.9,109.9,175.9,93.6,175.9,77.3z"/>
	<path class="st1" d="M119.9,85.1c16.6-2.6,33.3-4.8,49.9-6.9c0,16,0,32.1,0,48.1c-16.6,0-33.3,0.2-49.9,0.2V85.1z"/>
	<path class="st1" d="M119.9,131.6c16.6-0.1,33.3,0.2,49.9,0.2c0,16.1,0,32.2,0,48.3c-16.6-2.5-33.3-4.6-49.9-6.9V131.6z"/>
	<path class="st1" d="M175.8,132.3h66.3c0,19.3,0,38.6,0,57.9c-22-3.3-44.1-6.4-66.2-9.4C175.9,164.6,175.8,148.5,175.8,132.3
		L175.8,132.3z"/>
</g>
<g>
	<path class="st1" d="M318.9,81.2l-8.3,30.3h-5.4l-5.8-21.2c-0.3-1-0.4-2.1-0.5-3.2h-0.1c-0.1,1.2-0.3,2.2-0.5,3.2l-5.9,21.2H287
		l-8.6-30.3h5.2l5.7,22.1c0.2,1,0.4,2,0.5,3.2h0.1c0.1-0.9,0.3-1.9,0.6-3.2l6.3-22.1h4.8l5.9,22.3c0.2,0.8,0.4,1.8,0.5,3h0.1
		c0.1-1,0.2-2,0.5-3.1l5.5-22.2L318.9,81.2L318.9,81.2z"/>
	<path class="st1" d="M322.1,82.4c0-0.8,0.3-1.4,0.8-1.9c0.5-0.5,1.2-0.8,2-0.8c0.8,0,1.5,0.3,2,0.8s0.8,1.1,0.8,1.9
		c0,0.8-0.3,1.4-0.8,1.9s-1.2,0.8-2,0.8s-1.5-0.3-2-0.8S322.1,83.2,322.1,82.4z M322.6,111.4V89.8h4.6v21.6H322.6z"/>
	<path class="st1" d="M352.6,111.4H348V99.2c0-4.2-1.5-6.2-4.5-6.2c-1.5,0-2.8,0.6-3.8,1.7s-1.5,2.6-1.5,4.4v12.3h-4.6V89.8h4.6v3.5
		h0.1c1.6-2.7,3.9-4,7-4c4.8,0,7.2,3,7.2,8.9L352.6,111.4L352.6,111.4z"/>
	<path class="st1" d="M378.1,111.4h-4.6V108h-0.1c-1.6,2.6-3.9,3.9-7.1,3.9c-2.7,0-4.9-1-6.5-2.9c-1.6-1.9-2.4-4.6-2.4-7.9
		c0-3.6,0.9-6.4,2.7-8.6s4.2-3.2,7.1-3.2s5,1.1,6.2,3.3h0.1V79.5h4.6V111.4z M373.6,98.8c0-1.6-0.5-3-1.6-4.1
		c-1.1-1.1-2.4-1.7-3.9-1.7c-1.8,0-3.3,0.7-4.4,2.1s-1.6,3.4-1.6,5.8c0,2.3,0.5,4.1,1.5,5.4s2.4,2,4.2,2c1.7,0,3.1-0.6,4.2-1.9
		c1.1-1.3,1.6-2.9,1.6-4.9L373.6,98.8L373.6,98.8z"/>
	<path class="st1" d="M383.2,100.8c0-3.6,1-6.4,3-8.4c2-2.1,4.8-3.1,8.3-3.1c3.3,0,5.9,1,7.8,3s2.9,4.7,2.9,8.2c0,3.5-1,6.3-3,8.3
		c-2,2.1-4.7,3.1-8.1,3.1c-3.3,0-5.9-1-7.9-3C384.2,106.9,383.2,104.2,383.2,100.8z M387.9,100.7c0,2.4,0.6,4.2,1.7,5.5s2.7,2,4.7,2
		c4.2,0,6.2-2.6,6.2-7.7c0-2.5-0.5-4.4-1.6-5.7c-1.1-1.3-2.6-1.9-4.6-1.9s-3.6,0.7-4.7,2.1C388.4,96.4,387.9,98.3,387.9,100.7z"/>
	<path class="st1" d="M438.9,89.8l-6.4,21.6h-4.8l-4-14.5c-0.2-0.6-0.3-1.4-0.3-2.3h-0.1c0,0.6-0.2,1.3-0.4,2.2l-4.3,14.5h-4.7
		l-6.4-21.6h4.7l3.9,15.5c0.2,0.6,0.3,1.3,0.3,2.1h0.1c0.1-0.7,0.2-1.5,0.4-2.2l4.6-15.4h4.3l4.1,15.5c0.1,0.4,0.2,1.1,0.3,2.1h0.2
		c0-0.7,0.2-1.4,0.4-2.1l3.8-15.5L438.9,89.8L438.9,89.8z"/>
	<path class="st1" d="M441.6,106.4c2,1.4,4.1,2.1,6.3,2.1c2.9,0,4.3-0.9,4.3-2.7c0-0.7-0.3-1.4-0.9-1.8c-0.6-0.5-1.9-1.1-4-1.9
		c-2.2-0.8-3.7-1.7-4.5-2.7s-1.2-2.2-1.2-3.6c0-2,0.8-3.6,2.5-4.7c1.7-1.2,3.7-1.7,6.2-1.7c1.9,0,3.7,0.3,5.3,0.9v4.1
		c-1.6-1-3.5-1.5-5.5-1.5c-1.2,0-2.1,0.2-2.8,0.7s-1.1,1.1-1.1,1.9c0,0.8,0.3,1.4,0.8,1.8c0.5,0.4,1.7,1,3.6,1.8
		c2.3,0.9,3.9,1.8,4.8,2.7c0.9,1,1.3,2.2,1.3,3.6c0,2-0.8,3.7-2.5,4.8s-3.9,1.8-6.6,1.8c-2.3,0-4.3-0.4-6.1-1.2V106.4z"/>
	<path class="st1" d="M303.8,139.9h-22.5v-3.8h9.1c-0.2-0.6-0.6-1.4-1.3-2.5l4.1-1.1c0.6,1,1.1,2.2,1.7,3.6h8.9L303.8,139.9
		L303.8,139.9z M322.9,172.6h-13.4v2.3h-4v-25.2c-0.7,1-1.3,1.9-1.8,2.6l-1.5-4.3v6.2h-7.5c-0.2,1.5-0.3,2.6-0.4,3h8.5l0,13.8
		c0,1.2-0.4,2.2-1.2,2.8s-2.6,1-5.4,1l-1.2-3.7l3,0c0.6,0,0.9-0.4,0.9-1.2l0-9.3h-5.1l-1.3,5.4c0.5,0,1.2-0.2,2.1-0.6
		c-0.2-0.6-0.4-1.4-0.7-2.2l2.5-1c0.7,1.9,1.3,4.2,1.9,6.8l-2.8,1.1c0-0.5-0.1-1-0.3-1.5c-2.1,0.6-4.4,1.2-6.8,1.8l-1.2-3.1
		c0.6-0.1,1.1-0.2,1.3-0.3c0.7-2.3,1.2-4.4,1.5-6.2h-3.3v14.2h-3.9v-14.2h-1.6v-3.4h1.6V156h3.9v1.2h3.9c0.2-0.9,0.3-1.9,0.4-3h-7.7
		v-12.4h3.6v8.9h11.5v-8.9h3.6v5.2c2-3.4,3.7-8.3,5.2-14.5l3.8,0.5c-0.4,2.1-1.1,4.6-1.9,7.6h4.9c-0.5-1.8-1.2-4-2.2-6.4l3.8-0.7
		c1.3,2.6,2.1,5,2.4,7.1h4.2v4h-4.8v5.3h4.4v3.8h-4.4v5.5h4.4v3.9h-4.4v5.6h5.4L322.9,172.6L322.9,172.6z M298,142.2
		c-0.5,0.8-1.4,1.9-2.6,3.1c0.9,0.8,1.8,1.6,2.6,2.4l-2,2.4c-1.1-1.1-2-2-2.7-2.6c-1.2,1.1-2.4,2-3.6,2.7l-2-2.4
		c1.3-0.8,2.3-1.6,3.1-2.2c-1.3-1-2.3-1.7-3.2-2.1l2.3-2.2c1.2,0.7,2.3,1.4,3.2,2.1c0.9-0.9,1.8-1.8,2.5-2.8L298,142.2z
		 M313.5,149.9v-5.3h-4v5.3H313.5z M313.5,159.1v-5.5h-4v5.5H313.5z M313.5,168.6V163h-4v5.6H313.5z"/>
	<path class="st1" d="M335.3,163.5c-0.6,4.4-1.6,8.2-3,11.4l-3.4-1.5c1.3-3.4,2.3-7,2.9-10.7L335.3,163.5z M346.6,141.8
		c-3.5,6.4-7.2,11.5-10.9,15.5c1.2-0.2,2.9-0.6,5.1-1.2c-0.3-0.8-0.6-1.6-0.9-2.2l3.1-1.1c1.3,2.6,2.3,5.1,2.8,7.6l-3.2,1.1
		c-0.2-1-0.4-1.7-0.5-2.1c-3.5,1-7.5,1.8-11.9,2.5l-0.9-3.3c2.9-2.5,5.7-5.7,8.3-9.5c-2,0.4-4.4,0.7-7.1,1.1l-0.8-3
		c3.2-3.8,6.1-8.7,8.6-14.6l3.8,1.5c-1.7,4-4,7.9-6.8,11.9c1.8-0.2,3.4-0.4,4.7-0.6c0.9-1.3,1.8-2.9,2.7-4.8L346.6,141.8z
		 M341.8,172.9l-3.8,0.8c0-3.2-0.4-6.6-1.2-10.1l3.5-0.8C341,166.3,341.5,169.7,341.8,172.9z M347,167.1l-3.1,1.1
		c-0.4-1.9-1.1-3.7-2.1-5.5l3.1-0.9C345.8,163.5,346.5,165.3,347,167.1z M355.2,155.7c0.3,6.3-2.6,12.3-8.7,18.1l-2.8-2.7
		c4.2-3.5,6.7-7.4,7.5-11.6h-4.9v-3.8H355.2z M371.7,170.1l-2.9,3.6c-2.9-2.3-5.7-5.6-8.2-9.9v7.1c0,1.4-0.6,2.5-1.7,3.1
		s-3.4,1-6.8,1l-1.1-4.4c2.1,0.1,3.6,0.1,4.3,0s1.1-0.3,1.1-0.8v-17.1h-9v-15.9h6c0.9-1.3,1.6-2.7,2.2-4.3l4.2,0.9
		c-0.4,1.2-1,2.3-1.6,3.4h10.6v15.9h-8.1v3.7c0.3,0.7,0.9,1.6,1.5,2.6c1.4-1,3.1-2.6,5-4.7l2.9,2.6c-1.6,1.7-3.5,3.5-5.9,5.4
		C366,164.9,368.5,167.5,371.7,170.1z M364.6,143.1v-2.7h-13v2.7H364.6z M364.6,149.3v-2.8h-13v2.8H364.6z"/>
	<path class="st1" d="M393.2,148.1H384v5.8h9.1v20.9h-4.2V158H384c-0.4,7.8-1.7,13.5-3.8,17l-3-3.8c0.9-1.8,1.6-3.8,2.1-6.1
		s0.8-6.2,0.8-12v-19.7h4.1v10.5h5v-11h4.2V148.1z M419.7,171.5l-2.8,3.4c-2.6-1.9-5.1-4.3-7.3-7.1c-1.4,2-3.6,4.3-6.6,6.8l-3.1-2.9
		c2.7-1.9,5.1-4.4,7.2-7.3c-2.2-3.8-3.9-8.8-5-15h-0.7v6c0,8-1.2,14.5-3.7,19.4l-3.5-2.3c2.1-4.4,3.2-9.6,3.2-15.6v-22.8h21.2v4.2
		h-17.1v6.8h15.3c-0.7,7.9-2.3,14.3-4.8,19C413.6,166.5,416.2,169,419.7,171.5z M412.1,149.3h-6c0.9,4.5,2,8,3.4,10.7
		C410.7,157,411.6,153.5,412.1,149.3z"/>
</g>
</svg>
